<svg width="28" height="28" viewBox="0 0 28 28" fill="none" xmlns="http://www.w3.org/2000/svg">
<path d="M13.7577 27.4698C20.9927 27.4698 26.8577 21.6048 26.8577 14.3698C26.8577 7.13579 20.9927 1.27079 13.7577 1.27079C6.52272 1.27079 0.657715 7.13579 0.657715 14.3698C0.657715 21.6048 6.52272 27.4698 13.7577 27.4698Z" stroke="#00234B" stroke-width="0.75"/>
<path d="M13.7577 21.8109C14.1007 21.8109 14.3777 21.5329 14.3777 21.1899C14.3777 20.8479 14.1007 20.5699 13.7577 20.5699C13.4147 20.5699 13.1377 20.8479 13.1377 21.1899C13.1377 21.5329 13.4147 21.8109 13.7577 21.8109Z" fill="#00234B"/>
<path d="M13.7577 21.8109C14.1007 21.8109 14.3777 21.5329 14.3777 21.1899C14.3777 20.8479 14.1007 20.5699 13.7577 20.5699C13.4147 20.5699 13.1377 20.8479 13.1377 21.1899C13.1377 21.5329 13.4147 21.8109 13.7577 21.8109Z" stroke="#00234B" stroke-width="0.75"/>
<path d="M13.5944 18.0421V15.2831C15.8294 15.2831 17.6404 13.4581 17.6404 11.2061C17.6404 8.95511 15.8294 7.13011 13.5944 7.13011C11.9124 7.13011 10.4694 8.16511 9.85938 9.63611" stroke="#00234B" stroke-width="0.75"/>
</svg>
